<svg width="618" height="269" viewBox="0 0 618 269" fill="none" xmlns="http://www.w3.org/2000/svg">
<rect y="0.000244141" width="2.42988" height="50.6225" fill="#11D972"/>
<rect x="23.894" y="17.4143" width="2.42988" height="33.2084" fill="#11D972"/>
<rect x="47.7876" y="34.0186" width="2.42988" height="16.6042" fill="#11D972"/>
<rect x="277.817" y="50.6226" width="2.42988" height="50.6225" transform="rotate(180 277.817 50.6226)" fill="#11D972"/>
<rect x="253.923" y="33.2085" width="2.42988" height="33.2084" transform="rotate(180 253.923 33.2085)" fill="#11D972"/>
<rect x="230.029" y="16.6042" width="2.42988" height="16.6042" transform="rotate(180 230.029 16.6042)" fill="#11D972"/>
<rect x="617.999" y="161.182" width="2.42988" height="50.6225" transform="rotate(180 617.999 161.182)" fill="#11D972"/>
<rect x="594.105" y="143.768" width="2.42988" height="33.2084" transform="rotate(180 594.105 143.768)" fill="#11D972"/>
<rect x="570.212" y="127.164" width="2.42988" height="16.6042" transform="rotate(180 570.212 127.164)" fill="#11D972"/>
<rect x="390.401" y="161.182" width="2.42988" height="50.6225" transform="rotate(180 390.401 161.182)" fill="#11D972"/>
<rect x="366.507" y="143.768" width="2.42988" height="33.2084" transform="rotate(180 366.507 143.768)" fill="#11D972"/>
<rect x="342.613" y="127.164" width="2.42988" height="16.6042" transform="rotate(180 342.613 127.164)" fill="#11D972"/>
<rect width="2.42988" height="50.6225" transform="matrix(1 8.74228e-08 8.74228e-08 -1 340.183 268.502)" fill="#11D972"/>
<rect width="2.42988" height="33.2084" transform="matrix(1 8.74228e-08 8.74228e-08 -1 364.077 251.088)" fill="#11D972"/>
<rect width="2.42988" height="16.6042" transform="matrix(1 8.74228e-08 8.74228e-08 -1 387.971 234.484)" fill="#11D972"/>
<rect x="163.612" y="161.182" width="2.42988" height="50.6225" transform="rotate(180 163.612 161.182)" fill="#11D972"/>
<rect x="139.718" y="143.768" width="2.42988" height="33.2084" transform="rotate(180 139.718 143.768)" fill="#11D972"/>
<rect x="115.824" y="127.164" width="2.42988" height="16.6042" transform="rotate(180 115.824 127.164)" fill="#11D972"/>
<rect width="2.42988" height="51.0275" transform="matrix(4.37114e-08 -1 -1 -4.37114e-08 391.211 50.6226)" fill="#11D972"/>
<rect width="2.83486" height="33.6134" transform="matrix(4.37114e-08 -1 -1 -4.37114e-08 373.797 26.7288)" fill="#11D972"/>
<rect width="2.42988" height="16.6042" transform="matrix(4.37114e-08 -1 -1 -4.37114e-08 356.788 2.42993)" fill="#11D972"/>
<rect x="453.578" y="161.182" width="2.42988" height="51.0275" transform="rotate(-90 453.578 161.182)" fill="#11D972"/>
<rect x="470.992" y="137.288" width="2.83486" height="33.6134" transform="rotate(-90 470.992 137.288)" fill="#11D972"/>
<rect x="488.001" y="112.99" width="2.42988" height="16.6042" transform="rotate(-90 488.001 112.99)" fill="#11D972"/>
<rect x="566.973" y="268.502" width="2.42988" height="51.0275" transform="rotate(-90 566.973 268.502)" fill="#11D972"/>
<rect x="584.387" y="244.608" width="2.83486" height="33.6134" transform="rotate(-90 584.387 244.608)" fill="#11D972"/>
<rect x="601.396" y="220.309" width="2.42988" height="16.6042" transform="rotate(-90 601.396 220.309)" fill="#11D972"/>
<rect x="226.789" y="161.182" width="2.42988" height="51.0275" transform="rotate(-90 226.789 161.182)" fill="#11D972"/>
<rect x="244.203" y="137.288" width="2.83486" height="33.6134" transform="rotate(-90 244.203 137.288)" fill="#11D972"/>
<rect x="261.212" y="112.99" width="2.42988" height="16.6042" transform="rotate(-90 261.212 112.99)" fill="#11D972"/>
<rect width="2.42988" height="51.0275" transform="matrix(-1 0 0 1 504.402 0.000244141)" fill="#11D972"/>
<rect width="2.83486" height="33.6134" transform="matrix(-1 0 0 1 480.509 17.4143)" fill="#11D972"/>
<rect width="2.42988" height="16.6042" transform="matrix(-1 0 0 1 456.21 34.4236)" fill="#11D972"/>
<rect x="453.78" y="217.88" width="2.42988" height="51.0275" fill="#11D972"/>
<rect x="477.674" y="235.294" width="2.83486" height="33.6134" fill="#11D972"/>
<rect x="501.973" y="252.303" width="2.42988" height="16.6042" fill="#11D972"/>
<rect width="2.42988" height="51.0275" transform="matrix(-1 0 0 1 50.6226 217.88)" fill="#11D972"/>
<rect width="2.83486" height="33.6134" transform="matrix(-1 0 0 1 26.7285 235.294)" fill="#11D972"/>
<rect width="2.42988" height="16.6042" transform="matrix(-1 0 0 1 2.42969 252.303)" fill="#11D972"/>
<rect x="617.797" y="0.000244141" width="2.42988" height="51.0275" transform="rotate(90 617.797 0.000244141)" fill="#11D972"/>
<rect x="600.383" y="23.894" width="2.83486" height="33.6134" transform="rotate(90 600.383 23.894)" fill="#11D972"/>
<rect x="583.374" y="48.1929" width="2.42988" height="16.6042" transform="rotate(90 583.374 48.1929)" fill="#11D972"/>
<rect width="2.42988" height="51.0275" transform="matrix(4.37114e-08 -1 -1 -4.37114e-08 278.626 268.502)" fill="#11D972"/>
<rect width="2.83486" height="33.6134" transform="matrix(4.37114e-08 -1 -1 -4.37114e-08 261.212 244.608)" fill="#11D972"/>
<rect width="2.42988" height="16.6042" transform="matrix(4.37114e-08 -1 -1 -4.37114e-08 244.203 220.309)" fill="#11D972"/>
<rect x="164.219" y="0.000244141" width="2.42988" height="50.6225" transform="rotate(90 164.219 0.000244141)" fill="#11D972"/>
<rect x="146.805" y="23.894" width="2.42988" height="33.2084" transform="rotate(90 146.805 23.894)" fill="#11D972"/>
<rect x="130.201" y="47.7878" width="2.42988" height="16.6042" transform="rotate(90 130.201 47.7878)" fill="#11D972"/>
<rect x="163.612" y="217.88" width="2.42988" height="50.6225" transform="rotate(90 163.612 217.88)" fill="#11D972"/>
<rect x="146.198" y="241.773" width="2.42988" height="33.2084" transform="rotate(90 146.198 241.773)" fill="#11D972"/>
<rect x="129.594" y="265.667" width="2.42988" height="16.6042" transform="rotate(90 129.594 265.667)" fill="#11D972"/>
<rect width="2.42988" height="50.6225" transform="matrix(4.37114e-08 1 1 -4.37114e-08 0 110.56)" fill="#11D972"/>
<rect width="2.42988" height="33.2084" transform="matrix(4.37114e-08 1 1 -4.37114e-08 17.4141 134.454)" fill="#11D972"/>
<rect width="2.42988" height="16.6042" transform="matrix(4.37114e-08 1 1 -4.37114e-08 34.0181 158.347)" fill="#11D972"/>
</svg>
